HIERARCHY
ROOT mixamorig:Hips
{
	OFFSET -0.000008 104.274872 1.554316
	CHANNELS 6 Xposition Yposition Zposition Xrotation Yrotation Zrotation
	JOINT mixamorig:Spine
	{
		OFFSET -0.000005 10.181595 0.131519
		CHANNELS 6 Xposition Yposition Zposition Xrotation Yrotation Zrotation
		JOINT mixamorig:Spine1
		{
			OFFSET -0.000000 9.893959 -1.470707
			CHANNELS 6 Xposition Yposition Zposition Xrotation Yrotation Zrotation
			JOINT mixamorig:Spine2
			{
				OFFSET -0.000000 9.220757 -1.370641
				CHANNELS 6 Xposition Yposition Zposition Xrotation Yrotation Zrotation
				JOINT mixamorig:Neck
				{
					OFFSET 0.000001 16.740417 -2.049036
					CHANNELS 6 Xposition Yposition Zposition Xrotation Yrotation Zrotation
					JOINT mixamorig:Head
					{
						OFFSET 0.000000 9.617874 1.685006
						CHANNELS 6 Xposition Yposition Zposition Xrotation Yrotation Zrotation
						JOINT mixamorig:HeadTop_End
						{
							OFFSET 0.000002 22.037354 7.501101
							CHANNELS 6 Xposition Yposition Zposition Xrotation Yrotation Zrotation
							End Site
							{
								OFFSET 0.000168 2310.654297 -282.823242
							}
						}
					}
				}
				JOINT mixamorig:RightShoulder
				{
					OFFSET -4.569970 11.014908 -2.160885
					CHANNELS 6 Xposition Yposition Zposition Xrotation Yrotation Zrotation
					JOINT mixamorig:RightArm
					{
						OFFSET -10.592851 -0.524811 -2.232101
						CHANNELS 6 Xposition Yposition Zposition Xrotation Yrotation Zrotation
						JOINT mixamorig:RightForeArm
						{
							OFFSET -27.841511 0.000031 -0.000004
							CHANNELS 6 Xposition Yposition Zposition Xrotation Yrotation Zrotation
							JOINT mixamorig:RightHand
							{
								OFFSET -28.328831 -0.000015 0.000015
								CHANNELS 6 Xposition Yposition Zposition Xrotation Yrotation Zrotation
								JOINT mixamorig:RightHandThumb1
								{
									OFFSET -2.464806 -1.573990 2.681852
									CHANNELS 6 Xposition Yposition Zposition Xrotation Yrotation Zrotation
									JOINT mixamorig:RightHandThumb2
									{
										OFFSET -3.215179 -1.872803 1.924282
										CHANNELS 6 Xposition Yposition Zposition Xrotation Yrotation Zrotation
										JOINT mixamorig:RightHandThumb3
										{
											OFFSET -2.654831 -1.527969 1.512609
											CHANNELS 6 Xposition Yposition Zposition Xrotation Yrotation Zrotation
											JOINT mixamorig:RightHandThumb4
											{
												OFFSET -2.018814 -1.152008 1.108052
												CHANNELS 6 Xposition Yposition Zposition Xrotation Yrotation Zrotation
												End Site
												{
													OFFSET -188.809540 -114.533607 132.431396
												}
											}
										}
									}
								}
								JOINT mixamorig:RightHandIndex1
								{
									OFFSET -9.108284 -0.517868 2.259835
									CHANNELS 6 Xposition Yposition Zposition Xrotation Yrotation Zrotation
									JOINT mixamorig:RightHandIndex2
									{
										OFFSET -3.699989 0.000000 0.001215
										CHANNELS 6 Xposition Yposition Zposition Xrotation Yrotation Zrotation
										JOINT mixamorig:RightHandIndex3
										{
											OFFSET -2.850006 0.000031 -0.000522
											CHANNELS 6 Xposition Yposition Zposition Xrotation Yrotation Zrotation
											JOINT mixamorig:RightHandIndex4
											{
												OFFSET -2.772186 -0.000015 -0.000020
												CHANNELS 6 Xposition Yposition Zposition Xrotation Yrotation Zrotation
												End Site
												{
													OFFSET -277.218445 0.000000 -0.050231
												}
											}
										}
									}
								}
								JOINT mixamorig:RightHandMiddle1
								{
									OFFSET -9.532516 -0.000031 -0.000023
									CHANNELS 6 Xposition Yposition Zposition Xrotation Yrotation Zrotation
									JOINT mixamorig:RightHandMiddle2
									{
										OFFSET -3.700005 -0.000015 0.003713
										CHANNELS 6 Xposition Yposition Zposition Xrotation Yrotation Zrotation
										JOINT mixamorig:RightHandMiddle3
										{
											OFFSET -2.949974 0.000015 -0.002054
											CHANNELS 6 Xposition Yposition Zposition Xrotation Yrotation Zrotation
											JOINT mixamorig:RightHandMiddle4
											{
												OFFSET -2.946640 0.000000 -0.000156
												CHANNELS 6 Xposition Yposition Zposition Xrotation Yrotation Zrotation
												End Site
												{
													OFFSET -294.664337 0.000000 -0.113670
												}
											}
										}
									}
								}
								JOINT mixamorig:RightHandRing1
								{
									OFFSET -9.103600 -0.043076 -1.865134
									CHANNELS 6 Xposition Yposition Zposition Xrotation Yrotation Zrotation
									JOINT mixamorig:RightHandRing2
									{
										OFFSET -3.379288 0.000000 -0.001055
										CHANNELS 6 Xposition Yposition Zposition Xrotation Yrotation Zrotation
										JOINT mixamorig:RightHandRing3
										{
											OFFSET -2.889687 -0.000015 0.000379
											CHANNELS 6 Xposition Yposition Zposition Xrotation Yrotation Zrotation
											JOINT mixamorig:RightHandRing4
											{
												OFFSET -2.638809 -0.000015 0.000941
												CHANNELS 6 Xposition Yposition Zposition Xrotation Yrotation Zrotation
												End Site
												{
													OFFSET -263.880371 0.000000 0.516020
												}
											}
										}
									}
								}
								JOINT mixamorig:RightHandPinky1
								{
									OFFSET -8.076683 -0.486710 -3.806280
									CHANNELS 6 Xposition Yposition Zposition Xrotation Yrotation Zrotation
									JOINT mixamorig:RightHandPinky2
									{
										OFFSET -3.600014 -0.000015 -0.003747
										CHANNELS 6 Xposition Yposition Zposition Xrotation Yrotation Zrotation
										JOINT mixamorig:RightHandPinky3
										{
											OFFSET -2.099983 0.000000 -0.005739
											CHANNELS 6 Xposition Yposition Zposition Xrotation Yrotation Zrotation
											JOINT mixamorig:RightHandPinky4
											{
												OFFSET -2.115768 -0.000031 -0.003680
												CHANNELS 6 Xposition Yposition Zposition Xrotation Yrotation Zrotation
												End Site
												{
													OFFSET -211.577087 0.000000 -0.350686
												}
											}
										}
									}
								}
							}
						}
					}
				}
				JOINT mixamorig:LeftShoulder
				{
					OFFSET 4.570447 11.014725 -2.160855
					CHANNELS 6 Xposition Yposition Zposition Xrotation Yrotation Zrotation
					JOINT mixamorig:LeftArm
					{
						OFFSET 10.592371 -0.524597 -2.232119
						CHANNELS 6 Xposition Yposition Zposition Xrotation Yrotation Zrotation
						JOINT mixamorig:LeftForeArm
						{
							OFFSET 27.841532 -0.000031 0.000026
							CHANNELS 6 Xposition Yposition Zposition Xrotation Yrotation Zrotation
							JOINT mixamorig:LeftHand
							{
								OFFSET 28.328846 -0.000061 0.000022
								CHANNELS 6 Xposition Yposition Zposition Xrotation Yrotation Zrotation
								JOINT mixamorig:LeftHandThumb1
								{
									OFFSET 2.466141 -1.576172 2.681732
									CHANNELS 6 Xposition Yposition Zposition Xrotation Yrotation Zrotation
									JOINT mixamorig:LeftHandThumb2
									{
										OFFSET 3.217812 -1.872070 1.916482
										CHANNELS 6 Xposition Yposition Zposition Xrotation Yrotation Zrotation
										JOINT mixamorig:LeftHandThumb3
										{
											OFFSET 2.656029 -1.528778 1.514513
											CHANNELS 6 Xposition Yposition Zposition Xrotation Yrotation Zrotation
											JOINT mixamorig:LeftHandThumb4
											{
												OFFSET 2.020889 -1.154053 1.115139
												CHANNELS 6 Xposition Yposition Zposition Xrotation Yrotation Zrotation
												End Site
												{
													OFFSET 190.885437 -115.081749 130.048782
												}
											}
										}
									}
								}
								JOINT mixamorig:LeftHandIndex1
								{
									OFFSET 9.109314 -0.518021 2.259871
									CHANNELS 6 Xposition Yposition Zposition Xrotation Yrotation Zrotation
									JOINT mixamorig:LeftHandIndex2
									{
										OFFSET 3.699989 0.000000 -0.000322
										CHANNELS 6 Xposition Yposition Zposition Xrotation Yrotation Zrotation
										JOINT mixamorig:LeftHandIndex3
										{
											OFFSET 2.850006 0.000000 0.000352
											CHANNELS 6 Xposition Yposition Zposition Xrotation Yrotation Zrotation
											JOINT mixamorig:LeftHandIndex4
											{
												OFFSET 2.774864 -0.000031 -0.000027
												CHANNELS 6 Xposition Yposition Zposition Xrotation Yrotation Zrotation
												End Site
												{
													OFFSET 277.486267 0.000000 -0.009857
												}
											}
										}
									}
								}
								JOINT mixamorig:LeftHandMiddle1
								{
									OFFSET 9.533394 0.000061 0.000044
									CHANNELS 6 Xposition Yposition Zposition Xrotation Yrotation Zrotation
									JOINT mixamorig:LeftHandMiddle2
									{
										OFFSET 3.699989 -0.000015 -0.000231
										CHANNELS 6 Xposition Yposition Zposition Xrotation Yrotation Zrotation
										JOINT mixamorig:LeftHandMiddle3
										{
											OFFSET 2.949997 -0.000015 -0.000059
											CHANNELS 6 Xposition Yposition Zposition Xrotation Yrotation Zrotation
											JOINT mixamorig:LeftHandMiddle4
											{
												OFFSET 2.952896 0.000031 0.000063
												CHANNELS 6 Xposition Yposition Zposition Xrotation Yrotation Zrotation
												End Site
												{
													OFFSET 295.289337 0.000000 0.022810
												}
											}
										}
									}
								}
								JOINT mixamorig:LeftHandRing1
								{
									OFFSET 9.104523 -0.042999 -1.865074
									CHANNELS 6 Xposition Yposition Zposition Xrotation Yrotation Zrotation
									JOINT mixamorig:LeftHandRing2
									{
										OFFSET 3.150009 -0.000031 0.000043
										CHANNELS 6 Xposition Yposition Zposition Xrotation Yrotation Zrotation
										JOINT mixamorig:LeftHandRing3
										{
											OFFSET 2.949982 -0.000015 0.000040
											CHANNELS 6 Xposition Yposition Zposition Xrotation Yrotation Zrotation
											JOINT mixamorig:LeftHandRing4
											{
												OFFSET 2.644348 0.000000 0.000057
												CHANNELS 6 Xposition Yposition Zposition Xrotation Yrotation Zrotation
												End Site
												{
													OFFSET 264.434631 0.000000 0.012105
												}
											}
										}
									}
								}
								JOINT mixamorig:LeftHandPinky1
								{
									OFFSET 8.077789 -0.486847 -3.806259
									CHANNELS 6 Xposition Yposition Zposition Xrotation Yrotation Zrotation
									JOINT mixamorig:LeftHandPinky2
									{
										OFFSET 3.599953 0.000031 0.014727
										CHANNELS 6 Xposition Yposition Zposition Xrotation Yrotation Zrotation
										JOINT mixamorig:LeftHandPinky3
										{
											OFFSET 2.100021 0.000015 0.007705
											CHANNELS 6 Xposition Yposition Zposition Xrotation Yrotation Zrotation
											JOINT mixamorig:LeftHandPinky4
											{
												OFFSET 2.125504 0.000031 0.007517
												CHANNELS 6 Xposition Yposition Zposition Xrotation Yrotation Zrotation
												End Site
												{
													OFFSET 212.550781 0.000000 0.625752
												}
											}
										}
									}
								}
							}
						}
					}
				}
			}
		}
	}
	JOINT mixamorig:RightUpLeg
	{
		OFFSET -8.207787 -6.751648 -1.599560
		CHANNELS 6 Xposition Yposition Zposition Xrotation Yrotation Zrotation
		JOINT mixamorig:RightLeg
		{
			OFFSET -0.000002 -44.370117 0.345942
			CHANNELS 6 Xposition Yposition Zposition Xrotation Yrotation Zrotation
			JOINT mixamorig:RightFoot
			{
				OFFSET 0.000003 -44.423679 -3.043532
				CHANNELS 6 Xposition Yposition Zposition Xrotation Yrotation Zrotation
				JOINT mixamorig:RightToeBase
				{
					OFFSET -0.000002 -8.728671 10.710558
					CHANNELS 6 Xposition Yposition Zposition Xrotation Yrotation Zrotation
					JOINT mixamorig:RightToe_End
					{
						OFFSET -0.000001 -0.000679 9.278119
						CHANNELS 6 Xposition Yposition Zposition Xrotation Yrotation Zrotation
						End Site
						{
							OFFSET 0.000000 -0.067690 927.812134
						}
					}
				}
			}
		}
	}
	JOINT mixamorig:LeftUpLeg
	{
		OFFSET 8.207793 -6.751686 -1.599556
		CHANNELS 6 Xposition Yposition Zposition Xrotation Yrotation Zrotation
		JOINT mixamorig:LeftLeg
		{
			OFFSET -0.000004 -44.370014 0.346954
			CHANNELS 6 Xposition Yposition Zposition Xrotation Yrotation Zrotation
			JOINT mixamorig:LeftFoot
			{
				OFFSET -0.000001 -44.423672 -3.044401
				CHANNELS 6 Xposition Yposition Zposition Xrotation Yrotation Zrotation
				JOINT mixamorig:LeftToeBase
				{
					OFFSET -0.000002 -8.728669 10.710558
					CHANNELS 6 Xposition Yposition Zposition Xrotation Yrotation Zrotation
					JOINT mixamorig:LeftToe_End
					{
						OFFSET -0.000003 -0.000679 9.278133
						CHANNELS 6 Xposition Yposition Zposition Xrotation Yrotation Zrotation
						End Site
						{
							OFFSET 0.000000 -0.068021 927.813477
						}
					}
				}
			}
		}
	}
}
MOTION
Frames: 3
Frame Time: 0.033333
0.000006 104.270477 1.554256 0.000010 0.000003 -0.000113 -0.000005 10.181587 0.131522 0.000001 -0.000003 0.000084 -0.000000 9.893967 -1.470711 0.000001 0.000000 -0.000000 -0.000000 9.220802 -1.370642 0.000000 -0.000000 -0.000000 0.000001 16.740433 -2.049030 0.000000 -0.000000 -0.000000 0.000000 9.617859 1.685014 0.000000 0.000000 0.000000 0.000002 22.037384 7.501101 0.000000 -0.000000 0.000000 -4.569968 11.014880 -2.160881 0.000008 0.000001 -0.000038 -10.592793 -0.524845 -2.231757 74.105449 62.638914 -49.347844 -27.841488 0.000026 0.000587 43.930698 106.655508 -56.884069 -28.328829 0.000005 0.000016 -0.000322 -0.000044 0.000007 -2.464511 -1.574214 2.682106 88.272122 -124.495484 136.680910 -3.214805 -1.872970 1.924643 210.725707 -53.637800 266.985101 -2.654514 -1.528175 1.513107 192.905743 -42.069338 254.058093 -2.018822 -1.152016 1.108069 -0.000006 -0.000003 0.000000 -9.108278 -0.517880 2.260402 165.905691 16.477357 -99.297973 -3.700145 0.000146 0.001606 90.557544 47.915693 311.697786 -2.850136 0.000093 -0.000435 -351.241959 26.510630 -2.066653 -2.772173 0.000003 -0.000019 -0.000002 0.000000 -0.000002 -9.532562 0.000066 0.000518 162.093872 8.762556 -52.752242 -3.700101 0.000198 0.003820 43.638895 20.054091 -8.051370 -2.950040 -0.000007 -0.002022 -364.109762 9.356781 0.336749 -2.946632 -0.000003 -0.000154 -0.000000 -0.000001 -0.000000 -9.103658 -0.042907 -1.864601 163.094030 5.552700 -35.855720 -3.379092 0.000055 -0.001120 11.868630 -31.287994 3.337410 -2.889645 -0.000053 0.000340 -9.036487 -12.592981 -0.991390 -2.638818 -0.000041 0.000935 -0.000001 0.000001 0.000000 -8.076670 -0.486473 -3.805747 165.957409 -0.309758 3.466567 -3.599782 -0.000084 -0.003776 -8.636311 -40.212011 -3.302233 -2.099888 -0.000070 -0.005782 167.186065 -160.416418 177.722834 -2.115772 -0.000039 -0.003686 -0.000002 0.000002 -0.000002 4.570446 11.014691 -2.160851 -0.000018 0.000010 -0.000021 10.592526 -0.524524 -2.232390 71.379753 -60.221006 45.229718 27.841753 -0.000051 -0.000100 224.417914 -73.779075 237.090455 28.328829 -0.000028 0.000027 0.000023 -0.000088 0.000001 2.466151 -1.576156 2.681882 114.144107 147.451271 -158.094946 3.217851 -1.871989 1.916541 265.515135 34.553391 38.978080 2.656045 -1.528776 1.514625 247.418904 37.261373 412.647928 2.020884 -1.154063 1.115147 0.000003 0.000005 0.000002 9.109108 -0.517708 2.260026 204.261780 -14.853054 297.544542 3.699960 -0.000034 -0.000250 175.911167 -14.390596 148.554702 2.850157 0.000179 0.000347 156.331009 -15.079079 64.550622 2.774892 -0.000009 -0.000018 -0.000002 0.000002 -0.000002 9.533256 0.000388 0.000194 204.145448 -9.935774 315.781884 3.699909 -0.000062 -0.000165 -1.232433 -174.938493 -27.414366 2.950159 0.000194 -0.000048 -200.744738 -12.834176 -296.845240 2.952856 -0.000030 0.000061 -0.000000 -0.000000 0.000004 9.104393 -0.042674 -1.864929 204.306777 -9.334504 318.473525 3.150048 0.000387 0.000121 -174.316782 0.576342 371.538303 2.950044 0.000048 0.000100 -185.326514 -4.434240 79.576239 2.644316 0.000019 0.000057 -0.000003 0.000001 0.000000 8.077585 -0.486534 -3.806118 200.453485 -10.871658 303.490003 3.599927 0.000441 0.014849 -163.802157 -0.949890 350.624920 2.099896 0.000448 0.007809 -168.852617 -1.892958 337.571035 2.125525 -0.000019 0.007517 -0.000000 -0.000002 0.000000 -8.207786 -6.751667 -1.599560 -0.077001 -0.000003 0.000080 -0.000002 -44.370110 0.345938 0.153719 -0.000000 -0.000000 0.000000 -44.423679 -3.043532 -0.076700 0.000000 -0.000002 -0.000006 -8.728667 10.710559 -0.000009 -0.000000 -0.000000 -0.000001 -0.000679 9.278123 0.000000 -0.000000 -0.000000 8.207792 -6.751710 -1.599556 -0.074518 -0.000003 0.000081 -0.000002 -44.370014 0.346960 0.148822 0.000002 0.000000 -0.000001 -44.423664 -3.044403 -0.074314 0.000000 -0.000002 -0.000004 -8.728671 10.710558 0.000007 -0.000000 -0.000000 0.000000 -0.000680 9.278137 -0.000000 0.000000 -0.000001 
0.000006 104.270477 1.554256 0.000010 0.000003 -0.000113 -0.000005 10.181587 0.131522 0.000001 -0.000003 0.000084 -0.000000 9.893967 -1.470711 0.000001 0.000000 -0.000000 -0.000000 9.220802 -1.370642 0.000000 -0.000000 -0.000000 0.000001 16.740433 -2.049030 0.000000 -0.000000 -0.000000 0.000000 9.617859 1.685014 0.000000 0.000000 0.000000 0.000002 22.037384 7.501101 0.000000 -0.000000 0.000000 -4.569968 11.014880 -2.160881 0.000008 0.000001 -0.000038 -10.592791 -0.524836 -2.231754 74.129751 62.699730 -49.418994 -27.841490 0.000009 0.000593 44.817324 106.051418 -57.420294 -28.328821 0.000021 0.000004 -0.000324 -0.000045 0.000007 -2.464488 -1.574170 2.682099 87.943480 -119.993692 134.898804 -3.214756 -1.872965 1.924645 199.988704 -58.494129 252.486740 -2.654415 -1.528059 1.513064 165.316205 -45.264715 215.107683 -2.018826 -1.151982 1.108066 0.000002 -0.000001 0.000002 -9.108320 -0.517790 2.260391 169.507223 5.513143 -55.832408 -3.700083 0.000312 0.001573 103.267877 14.017161 342.375253 -2.850085 0.000274 -0.000426 -305.619465 11.490881 -5.917140 -2.772166 -0.000001 -0.000003 0.000001 0.000002 -0.000002 -9.532451 0.000230 0.000508 169.663484 -2.375305 24.878884 -3.699960 0.000370 0.003889 86.955582 -6.428557 6.163044 -2.950044 0.000189 -0.002008 -319.247960 10.536073 -3.919998 -2.946625 0.000011 -0.000155 0.000000 0.000000 0.000000 -9.103581 -0.042813 -1.864596 170.399341 -1.170290 14.234402 -3.379011 0.000253 -0.001054 56.935975 -41.492265 23.213685 -2.889614 0.000127 0.000318 20.549396 -18.590923 3.398650 -2.638818 -0.000003 0.000943 -0.000004 -0.000004 0.000001 -8.076557 -0.486418 -3.805748 170.032792 -4.072852 45.064161 -3.599614 0.000077 -0.003702 48.212185 -64.861348 31.597172 -2.099781 0.000048 -0.005811 187.585681 -143.405395 182.457329 -2.115768 -0.000039 -0.003668 -0.000006 0.000002 -0.000003 4.570446 11.014691 -2.160851 -0.000018 0.000010 -0.000021 10.592526 -0.524523 -2.232404 71.532325 -60.434627 45.519229 27.841751 -0.000061 -0.000104 224.811182 -73.873892 237.478574 28.328836 -0.000029 0.000026 0.000024 -0.000090 0.000001 2.466187 -1.576170 2.681797 201.971904 221.351609 -155.755975 3.217817 -1.871961 1.916598 355.420068 -31.935820 14.031398 2.656054 -1.528750 1.514629 342.439949 -27.289442 371.764082 2.020894 -1.154067 1.115153 -0.000002 -0.000001 0.000004 9.109294 -0.517987 2.260059 312.537135 -21.334180 350.534679 3.699973 -0.000014 -0.000152 145.381014 -148.015404 169.792383 2.849989 0.000034 0.000479 155.512534 -151.836731 173.768359 2.774888 -0.000048 -0.000028 -0.000000 0.000002 -0.000003 9.533383 0.000086 0.000206 313.930275 -14.451470 353.830437 3.699973 0.000009 -0.000077 -37.255134 -23.648598 -8.072864 2.950007 0.000000 0.000069 -29.738849 -23.317716 -366.271763 2.952859 -0.000010 0.000061 0.000003 0.000001 -0.000000 9.104517 -0.043003 -1.864905 316.623227 -12.701907 354.930370 3.150005 0.000036 0.000163 -37.661154 -0.559137 359.808819 2.949984 0.000016 0.000156 -34.989307 -2.586408 -0.815778 2.644318 0.000045 0.000052 -0.000001 -0.000000 -0.000000 8.077781 -0.486838 -3.806098 317.463805 -10.078918 355.934572 3.599960 0.000032 0.014854 -42.272396 9.912205 363.636703 2.100007 0.000022 0.007838 -45.244867 9.327953 363.688258 2.125509 -0.000015 0.007515 0.000001 -0.000000 0.000001 -8.207786 -6.751667 -1.599560 -0.077001 -0.000003 0.000080 -0.000002 -44.370110 0.345938 0.153719 -0.000000 -0.000000 0.000000 -44.423679 -3.043532 -0.076700 0.000000 -0.000002 -0.000006 -8.728667 10.710559 -0.000009 -0.000000 -0.000000 -0.000001 -0.000679 9.278123 0.000000 -0.000000 -0.000000 8.207792 -6.751710 -1.599556 -0.074518 -0.000003 0.000081 -0.000002 -44.370014 0.346960 0.148822 0.000002 0.000000 -0.000001 -44.423664 -3.044403 -0.074314 0.000000 -0.000002 -0.000004 -8.728671 10.710558 0.000007 -0.000000 -0.000000 0.000000 -0.000680 9.278137 -0.000000 0.000000 -0.000001 
0.000006 104.270477 1.554256 0.000010 0.000003 -0.000113 -0.000005 10.181587 0.131522 0.000001 -0.000003 0.000084 -0.000000 9.893967 -1.470711 0.000001 0.000000 -0.000000 -0.000000 9.220802 -1.370642 0.000000 -0.000000 -0.000000 0.000001 16.740433 -2.049030 0.000000 -0.000000 -0.000000 0.000000 9.617859 1.685014 0.000000 0.000000 0.000000 0.000002 22.037384 7.501101 0.000000 -0.000000 0.000000 -4.569968 11.014880 -2.160881 0.000008 0.000001 -0.000038 -10.592798 -0.524835 -2.231757 74.168232 61.212039 -48.180820 -27.841486 0.000018 0.000587 45.201239 105.459371 -57.359375 -28.328831 0.000037 0.000037 -0.000322 -0.000046 0.000008 -2.464489 -1.574181 2.682097 87.218169 -120.273634 134.484676 -3.214768 -1.872938 1.924663 193.792971 -57.523573 247.599849 -2.654497 -1.528172 1.513075 194.571339 -38.495756 246.904891 -2.018833 -1.151998 1.108075 -0.000002 0.000002 0.000002 -9.108197 -0.517631 2.260403 144.048662 -16.868474 -46.194171 -3.700043 0.000341 0.001529 98.903332 5.336104 340.407066 -2.850087 0.000253 -0.000460 -314.478001 12.070305 -3.986242 -2.772178 -0.000015 -0.000006 0.000001 -0.000003 -0.000000 -9.532482 0.000210 0.000496 168.684513 -0.520493 12.991568 -3.699954 0.000395 0.003861 82.940749 -9.109293 3.272740 -2.950061 0.000170 -0.002033 -325.371169 10.639449 -3.033471 -2.946625 0.000002 -0.000159 -0.000000 0.000000 0.000000 -9.103595 -0.042810 -1.864595 169.270761 -0.243273 7.418277 -3.379021 0.000209 -0.001062 50.080501 -41.448303 18.935210 -2.889614 0.000098 0.000324 15.661627 -18.423570 2.393843 -2.638814 -0.000031 0.000941 0.000000 0.000001 -0.000001 -8.076578 -0.486423 -3.805753 169.637078 -3.964517 42.850691 -3.599641 0.000077 -0.003730 37.364806 -64.261159 23.002600 -2.099790 0.000024 -0.005814 184.800849 -144.607549 181.293014 -2.115771 -0.000028 -0.003682 -0.000003 -0.000002 -0.000002 4.570446 11.014691 -2.160851 -0.000018 0.000010 -0.000021 10.592525 -0.524516 -2.232404 71.586332 -59.433171 44.739505 27.841763 -0.000052 -0.000097 224.681245 -74.124457 237.103925 28.328836 -0.000014 0.000027 0.000019 -0.000089 0.000001 2.466166 -1.576141 2.681880 105.785178 151.075151 -154.434757 3.217830 -1.871987 1.916556 260.644499 37.962519 43.313713 2.656038 -1.528774 1.514601 233.654460 43.005275 426.326147 2.020895 -1.154070 1.115153 0.000004 0.000003 0.000004 9.109068 -0.517926 2.259966 366.598738 -164.932348 407.067827 3.699966 -0.000031 -0.000250 174.906200 -15.720997 144.404911 2.850144 0.000156 0.000385 165.566012 -12.071577 79.713922 2.774878 -0.000031 -0.000026 0.000000 0.000005 0.000000 9.533126 0.000176 0.000130 184.962889 -10.628229 229.927827 3.699871 -0.000037 -0.000152 -1.114327 -168.690086 -11.243361 2.950036 -0.000004 -0.000002 -5.852710 -168.028008 -411.951412 2.952860 -0.000012 0.000062 0.000002 0.000004 0.000002 9.104253 -0.042875 -1.864988 185.116609 -8.750160 240.575354 3.149737 0.000021 0.000120 0.008399 -173.366211 360.171175 2.949700 -0.000036 0.000119 -1.073779 -171.863201 -14.986968 2.644329 0.000045 0.000057 0.000001 0.000000 0.000001 8.077734 -0.486903 -3.806191 357.167858 -168.214008 338.229410 3.599705 0.000028 0.014797 0.077310 185.038526 370.409655 2.099757 0.000410 0.007787 -176.653226 -1.817208 298.735973 2.125503 0.000000 0.007517 -0.000003 0.000001 0.000000 -8.207786 -6.751667 -1.599560 -0.077001 -0.000003 0.000080 -0.000002 -44.370110 0.345938 0.153719 -0.000000 -0.000000 0.000000 -44.423679 -3.043532 -0.076700 0.000000 -0.000002 -0.000006 -8.728667 10.710559 -0.000009 -0.000000 -0.000000 -0.000001 -0.000679 9.278123 0.000000 -0.000000 -0.000000 8.207792 -6.751710 -1.599556 -0.074518 -0.000003 0.000081 -0.000002 -44.370014 0.346960 0.148822 0.000002 0.000000 -0.000001 -44.423664 -3.044403 -0.074314 0.000000 -0.000002 -0.000004 -8.728671 10.710558 0.000007 -0.000000 -0.000000 0.000000 -0.000680 9.278137 -0.000000 0.000000 -0.000001 
